# xmcd
#
# Track frame offsets:
#	150
#	13466
#	31686
#	50554
#	71881
#	90624
#	107936
#	125606
#	137362
#	158064
#	178158
#
# Disc length: 2602 seconds
#
# Revision: 2
# Processed by: cddbd v1.5.2PL0 Copyright (c) Steve Scherf et al.
# Submitted via: audiograbber 1.82.02
#
DISCID=980a280b
DTITLE=Καναβάκη Μαρία - Παράξενο τοπίο
DYEAR=2007
DGENRE=Εντεχνο
TTITLE0=Καναβάκη Μαρία - Καλοκαίριασε
TTITLE1=Καναβάκη Μαρία - Θα γυρίσω
TTITLE2=Πασχαλίδης Μίλτος - Αγνωστος στρατιώτης
TTITLE3=Καναβάκη Μαρία - Σε θυμάμαι
TTITLE4=Καναβάκη Μαρία - Ευχή
TTITLE5=Καναβάκη Μαρία - Δέκα χρόνια
TTITLE6=Καναβάκη Μαρία - Θεριστής
TTITLE7=Καναβάκη Μαρία - Καράβι τα όνειρα σου
TTITLE8=Καναβάκη Μαρία - Κάτι σαν πίκρα
TTITLE9=Καναβάκη Μαρία - Περίπατος
TTITLE10=Καναβάκη Μαρία - Παράξενο τοπίο
EXTD=
EXTT0=
EXTT1=
EXTT2=
EXTT3=
EXTT4=
EXTT5=
EXTT6=
EXTT7=
EXTT8=
EXTT9=
EXTT10=
PLAYORDER=
